<svg width="258" height="505" viewBox="0 0 258 505" fill="none" xmlns="http://www.w3.org/2000/svg">
<path d="M0.0619529 253.928C0.507263 260.174 3.03466 266.088 7.23776 270.729L208.838 494.729H208.834C213.799 500.252 220.756 503.576 228.174 503.971C235.592 504.365 242.862 501.795 248.389 496.83C253.912 491.861 257.237 484.904 257.627 477.486C258.022 470.072 255.451 462.798 250.487 457.275L65.6865 252.005L250.487 46.7352C255.451 41.2118 258.022 33.9422 257.627 26.5242C257.237 19.1062 253.912 12.1492 248.389 7.18015C242.862 2.21535 235.592 -0.355043 228.174 0.0395566C220.756 0.434087 213.799 3.75836 208.834 9.28566L7.23386 233.286H7.23776C2.14396 238.911 -0.441947 246.364 0.0619529 253.934V253.928Z" fill="#FFFF00"/>
</svg>
