<svg width="506" height="505" viewBox="0 0 506 505" fill="none" xmlns="http://www.w3.org/2000/svg">
    <path d="M292.2 253L497.16 48.04C507.801 37.399 507.801 20.04 497.16 8.84099C486.519 -2.35801 469.16 -1.8 457.961 8.84099L253.001 213.801L48.041 8.84099C37.4 -1.8 20.041 -1.8 8.84197 8.84099C-2.35703 19.482 -1.79903 36.841 8.84197 48.04L213.802 253L8.84197 457.96C-1.79903 468.601 -1.79903 485.96 8.84197 497.159C14.4436 502.761 21.162 504.999 28.444 504.999C35.726 504.999 42.444 502.198 48.046 497.159L253.006 292.199L457.966 497.159C463.568 502.761 470.286 504.999 477.568 504.999C484.85 504.999 491.568 502.198 497.17 497.159C507.811 486.518 507.811 469.159 497.17 457.96L292.2 253Z" 
        fill="black"
    />
</svg>
