<svg width="314" height="393" viewBox="0 0 314 393" fill="none" xmlns="http://www.w3.org/2000/svg">
    <path d="M20.719 0C8.95699 0 0 9.5195 0 21.281V371.281C0 388.64 19.039 398.16 33.039 388.64L144.479 308.562C151.76 303.523 161.28 303.523 168.557 308.562L279.997 388.64C293.997 398.718 313.036 388.64 313.036 371.281L313.032 21.281C313.032 9.519 303.513 0 292.313 0H20.719ZM230.719 150.64L201.598 179.199C199.918 180.879 199.36 183.121 199.36 185.359L206.079 225.679C207.2 231.281 201.039 235.757 196.001 232.96L160.161 213.921C157.922 212.8 155.68 212.8 153.442 213.921L117.598 232.96C112.559 235.761 106.399 231.281 107.52 225.679L114.239 185.359C114.797 183.121 113.68 180.879 112 179.199L82.8792 150.64C78.3987 146.718 81.1995 139.441 86.8011 138.32L127.121 132.718C129.359 132.16 131.602 131.039 132.723 128.796L150.645 92.3985C153.445 87.3594 160.723 87.3594 163.524 92.3985L181.446 128.796C182.567 131.035 184.246 132.156 187.047 132.718L227.367 138.32C232.398 139.441 235.195 146.718 230.719 150.64H230.719Z" 
    fill="#fff"/>
</svg>
